<svg width="1000" height="1000" viewBox="0 0 1000 1000" xmlns="http://www.w3.org/2000/svg"><defs/><path fill="#0f3877" fill-rule="evenodd" transform="matrix(0.36338897035149825 0 0 0.36338897035149825 34.695301115843336 21.989645270087557)" d="M 634.80379370795 1324.2733995257 C 628.00379370795 1324.2733995257 621.40379370795 1325.2733995257 615.10379370795 1326.9733995257 L 588.00379370795 1254.5733995257 L 610.60379370795 1254.5733995257 C 614.70379370795 1254.5733995257 618.00379370795 1257.8733995257 618.00379370795 1261.9733995257 C 618.00379370795 1266.0733995257 614.70379370795 1269.3733995257 610.60379370795 1269.3733995257 C 607.10379370795 1269.3733995257 604.30379370795 1272.1733995257 604.30379370795 1275.6733995257 C 604.30379370795 1279.1733995257 607.10379370795 1281.9733995257 610.60379370795 1281.9733995257 C 621.70379370795 1281.9733995257 630.70379370795 1272.9733995257 630.70379370795 1261.8733995257 C 630.70379370795 1250.7733995257 621.70379370795 1241.7733995257 610.60379370795 1241.7733995257 L 578.80379370795 1241.7733995257 C 576.70379370795 1241.7733995257 574.80379370795 1242.7733995257 573.60379370795 1244.4733995257 C 572.40379370795 1246.1733995257 572.10379370795 1248.3733995257 572.90379370795 1250.2733995257 L 591.60379370795 1300.1733995257 C 577.50379370795 1299.7733995257 549.40379370795 1300.2733995257 517.20379370795 1307.1733995257 C 510.50379370795 1308.5733995257 504.10379370795 1310.2733995257 497.80379370795 1312.0733995257 C 493.00379370795 1296.7733995257 501.10379370795 1270.9733995257 511.50379370795 1261.8733995257 L 337.10379370795 1159.4733995257 C 347.10379370795 1224.5733995257 431.90379370795 1238.4733995257 492.50379370795 1267.0733995257 L 363.80379370795 1221.2733995257 C 372.10379370795 1267.1733995257 443.50379370795 1267.7733995257 487.00379370795 1279.7733995257 L 396.20379370795 1265.1733995257 C 404.50379370795 1298.0733995257 457.10379370795 1289.0733995257 485.30379370795 1292.4733995257 L 428.80379370795 1294.3733995257 C 438.40379370795 1315.1733995257 466.30379370795 1305.1733995257 484.80379370795 1305.3733995257 L 453.80379370795 1311.8733995257 C 461.70379370795 1318.1733995257 467.70379370795 1320.5733995257 472.90379370795 1321.0733995257 C 459.80379370795 1326.5733995257 447.70379370795 1332.9733995257 436.70379370795 1340.4733995257 C 424.10379370795 1330.3733995257 408.20379370795 1324.3733995257 390.80379370795 1324.3733995257 C 350.30379370795 1324.3733995257 317.30379370795 1357.3733995257 317.30379370795 1397.8733995257 C 317.30379370795 1438.3733995257 350.30379370795 1471.3733995257 390.80379370795 1471.3733995257 C 428.70379370795 1471.3733995257 459.90379370795 1442.5733995257 463.90379370795 1405.6733995257 L 495.10379370795 1406.2733995257 C 495.10379370795 1406.2733995257 495.20379370795 1406.2733995257 495.20379370795 1406.2733995257 C 497.40379370795 1406.2733995257 499.50379370795 1405.0733995257 500.60379370795 1403.1733995257 C 501.00379370795 1402.5733995257 535.70379370795 1345.7733995257 602.40379370795 1329.7733995257 L 603.00379370795 1331.4733995257 C 578.20379370795 1343.2733995257 561.10379370795 1368.5733995257 561.10379370795 1397.7733995257 C 561.10379370795 1438.2733995257 594.10379370795 1471.2733995257 634.60379370795 1471.2733995257 C 675.10379370795 1471.2733995257 708.10379370795 1438.2733995257 708.10379370795 1397.7733995257 C 708.20379370795 1357.2733995257 675.30379370795 1324.2733995257 634.80379370795 1324.2733995257 Z M 404.00379370795 1391.6733995257 C 403.80379370795 1391.1733995257 403.50379370795 1390.7733995257 403.30379370795 1390.2733995257 C 412.30379370795 1377.5733995257 422.70379370795 1366.9733995257 434.10379370795 1358.0733995257 C 442.60379370795 1367.3733995257 448.20379370795 1379.3733995257 449.40379370795 1392.5733995257 L 404.00379370795 1391.6733995257 Z M 390.80379370795 1456.4733995257 C 358.40379370795 1456.4733995257 332.10379370795 1430.1733995257 332.10379370795 1397.7733995257 C 332.10379370795 1365.3733995257 358.40379370795 1339.0733995257 390.80379370795 1339.0733995257 C 403.20379370795 1339.0733995257 414.80379370795 1342.9733995257 424.30379370795 1349.5733995257 C 412.00379370795 1359.4733995257 401.40379370795 1370.7733995257 392.60379370795 1383.3733995257 C 392.00379370795 1383.2733995257 391.50379370795 1383.2733995257 390.90379370795 1383.2733995257 C 382.90379370795 1383.2733995257 376.40379370795 1389.7733995257 376.40379370795 1397.7733995257 C 376.40379370795 1405.7733995257 382.90379370795 1412.2733995257 390.90379370795 1412.2733995257 C 396.50379370795 1412.2733995257 401.40379370795 1409.0733995257 403.80379370795 1404.3733995257 L 449.10379370795 1405.2733995257 C 445.30379370795 1434.0733995257 420.70379370795 1456.4733995257 390.80379370795 1456.4733995257 Z M 491.80379370795 1393.4733995257 L 464.10379370795 1392.8733995257 C 463.00379370795 1376.2733995257 456.40379370795 1361.1733995257 446.10379370795 1349.3733995257 C 504.50379370795 1311.4733995257 579.00379370795 1312.3733995257 596.40379370795 1313.1733995257 L 598.10379370795 1317.6733995257 C 535.70379370795 1333.2733995257 500.40379370795 1380.6733995257 491.80379370795 1393.4733995257 Z M 634.80379370795 1456.4733995257 C 602.40379370795 1456.4733995257 576.10379370795 1430.1733995257 576.10379370795 1397.7733995257 C 576.10379370795 1374.8733995257 589.30379370795 1355.0733995257 608.40379370795 1345.3733995257 L 624.30379370795 1387.8733995257 C 621.80379370795 1390.4733995257 620.30379370795 1393.9733995257 620.30379370795 1397.7733995257 C 620.30379370795 1405.7733995257 626.80379370795 1412.2733995257 634.80379370795 1412.2733995257 C 642.80379370795 1412.2733995257 649.30379370795 1405.7733995257 649.30379370795 1397.7733995257 C 649.30379370795 1390.2733995257 643.50379370795 1384.0733995257 636.20379370795 1383.3733995257 L 620.30379370795 1340.8733995257 C 624.90379370795 1339.6733995257 629.80379370795 1339.0733995257 634.80379370795 1339.0733995257 C 667.20379370795 1339.0733995257 693.50379370795 1365.3733995257 693.50379370795 1397.7733995257 C 693.40379370795 1430.1733995257 667.10379370795 1456.4733995257 634.80379370795 1456.4733995257 Z"/><path id="text" fill="#0f3877" transform="matrix(0.7706498847682247 0 0 0.7706498847682247 201.92553702394844 47.20201144434576)" d="M 158.96138361082 602.91343704727 L 170.28938361082 602.81743704727 C 170.22538361082 603.32943704727 170.16138361082 604.25743704727 170.09738361082 605.60143704727 C 170.03338361082 606.94543704727 169.98538361082 607.85743704727 169.95338361082 608.33743704727 C 169.92138361082 608.81743704727 169.84138361082 609.56943704727 169.71338361082 610.59343704727 C 169.58538361082 611.61743704727 169.44138361082 612.36943704727 169.28138361082 612.84943704727 C 169.12138361082 613.32943704727 168.91338361082 613.95343704727 168.65738361082 614.72143704727 C 167.50538361082 618.04943704727 164.36938361082 620.67343704727 159.24938361082 622.59343704727 C 155.98538361082 623.74543704727 152.57738361082 624.32143704727 149.02538361082 624.32143704727 C 145.47338361082 624.32143704727 142.25738361082 623.74543704727 139.37738361082 622.59343704727 C 136.49738361082 621.44143704727 134.22538361082 619.96943704727 132.56138361082 618.17743704727 C 128.78538361082 614.20943704727 126.89738361082 606.76943704727 126.89738361082 595.85743704727 C 126.89738361082 584.94543704727 128.78538361082 577.50543704727 132.56138361082 573.53743704727 C 134.22538361082 571.74543704727 136.49738361082 570.27343704727 139.37738361082 569.12143704727 C 142.25738361082 567.96943704727 145.45738361082 567.39343704727 148.97738361082 567.39343704727 C 155.88938361082 567.39343704727 161.13738361082 569.12143704727 164.72138361082 572.57743704727 C 168.30538361082 576.03343704727 170.09738361082 580.83343704727 170.09738361082 586.97743704727 L 158.76938361082 586.97743704727 C 158.76938361082 584.16143704727 158.06538361082 582.06543704727 156.65738361082 580.68943704727 C 155.24938361082 579.31343704727 152.64138361082 578.62543704727 148.83338361082 578.62543704727 C 145.02538361082 578.62543704727 142.49738361082 579.80943704727 141.24938361082 582.17743704727 C 140.00138361082 584.54543704727 139.37738361082 588.09743704727 139.37738361082 592.83343704727 L 139.37738361082 597.82543704727 C 139.37738361082 605.44143704727 140.84938361082 610.11343704727 143.79338361082 611.84143704727 C 145.13738361082 612.67343704727 146.89738361082 613.08943704727 149.07338361082 613.08943704727 C 151.24938361082 613.08943704727 153.02538361082 612.88143704727 154.40138361082 612.46543704727 C 155.77738361082 612.04943704727 156.76938361082 611.32943704727 157.37738361082 610.30543704727 C 157.98538361082 609.28143704727 158.38538361082 608.27343704727 158.57738361082 607.28143704727 C 158.76938361082 606.28943704727 158.89738361082 604.83343704727 158.96138361082 602.91343704727 Z M 218.48138361082 622.97743704727 L 210.12938361082 622.97743704727 L 206.28938361082 616.35343704727 L 192.94538361082 623.55343704727 C 185.52138361082 623.55343704727 180.52938361082 620.86543704727 177.96938361082 615.48943704727 C 176.68938361082 612.86543704727 175.80938361082 610.03343704727 175.32938361082 606.99343704727 C 174.84938361082 603.95343704727 174.60938361082 600.78543704727 174.60938361082 597.48943704727 C 174.60938361082 594.19343704727 174.64138361082 591.76143704727 174.70538361082 590.19343704727 C 174.76938361082 588.62543704727 174.92938361082 586.80143704727 175.18538361082 584.72143704727 C 175.44138361082 582.64143704727 175.80938361082 580.89743704727 176.28938361082 579.48943704727 C 176.76938361082 578.08143704727 177.45738361082 576.62543704727 178.35338361082 575.12143704727 C 179.24938361082 573.61743704727 180.33738361082 572.41743704727 181.61738361082 571.52143704727 C 184.49738361082 569.53743704727 188.24138361082 568.54543704727 192.84938361082 568.54543704727 L 206.00138361082 568.54543704727 L 218.48138361082 567.77743704727 L 218.48138361082 622.97743704727 Z M 206.00138361082 605.50543704727 L 206.00138361082 579.77743704727 L 196.49738361082 579.77743704727 C 192.97738361082 579.77743704727 190.52938361082 581.12143704727 189.15338361082 583.80943704727 C 187.77738361082 586.49743704727 187.08938361082 590.51343704727 187.08938361082 595.85743704727 C 187.08938361082 601.20143704727 187.74538361082 604.96143704727 189.05738361082 607.13743704727 C 190.36938361082 609.31343704727 192.84938361082 610.40143704727 196.49738361082 610.40143704727 L 206.00138361082 605.50543704727 Z M 271.95338361082 568.16143704727 L 253.61738361082 622.97743704727 L 243.82538361082 622.97743704727 L 225.39338361082 568.16143704727 L 238.54538361082 568.16143704727 L 248.72138361082 603.87343704727 L 258.80138361082 568.16143704727 L 271.95338361082 568.16143704727 Z M 317.07338361082 622.97743704727 L 308.72138361082 622.97743704727 L 304.88138361082 616.35343704727 L 291.53738361082 623.55343704727 C 284.11338361082 623.55343704727 279.12138361082 620.86543704727 276.56138361082 615.48943704727 C 275.28138361082 612.86543704727 274.40138361082 610.03343704727 273.92138361082 606.99343704727 C 273.44138361082 603.95343704727 273.20138361082 600.78543704727 273.20138361082 597.48943704727 C 273.20138361082 594.19343704727 273.23338361082 591.76143704727 273.29738361082 590.19343704727 C 273.36138361082 588.62543704727 273.52138361082 586.80143704727 273.77738361082 584.72143704727 C 274.03338361082 582.64143704727 274.40138361082 580.89743704727 274.88138361082 579.48943704727 C 275.36138361082 578.08143704727 276.04938361082 576.62543704727 276.94538361082 575.12143704727 C 277.84138361082 573.61743704727 278.92938361082 572.41743704727 280.20938361082 571.52143704727 C 283.08938361082 569.53743704727 286.83338361082 568.54543704727 291.44138361082 568.54543704727 L 304.59338361082 568.54543704727 L 317.07338361082 567.77743704727 L 317.07338361082 622.97743704727 Z M 304.59338361082 605.50543704727 L 304.59338361082 579.77743704727 L 295.08938361082 579.77743704727 C 291.56938361082 579.77743704727 289.12138361082 581.12143704727 287.74538361082 583.80943704727 C 286.36938361082 586.49743704727 285.68138361082 590.51343704727 285.68138361082 595.85743704727 C 285.68138361082 601.20143704727 286.33738361082 604.96143704727 287.64938361082 607.13743704727 C 288.96138361082 609.31343704727 291.44138361082 610.40143704727 295.08938361082 610.40143704727 L 304.59338361082 605.50543704727 Z M 342.60938361082 622.97743704727 L 330.12938361082 623.07343704727 L 330.12938361082 550.78543704727 L 342.60938361082 550.78543704727 L 342.60938361082 622.97743704727 Z M 368.04938361082 622.97743704727 L 355.56938361082 623.07343704727 L 355.56938361082 550.78543704727 L 368.04938361082 550.78543704727 L 368.04938361082 622.97743704727 Z M 411.15338361082 598.20943704727 L 411.15338361082 593.21743704727 C 411.15338361082 588.48143704727 410.46538361082 584.86543704727 409.08938361082 582.36943704727 C 407.71338361082 579.87343704727 404.84938361082 578.62543704727 400.49738361082 578.62543704727 C 393.45738361082 578.62543704727 389.93738361082 583.36143704727 389.93738361082 592.83343704727 L 389.93738361082 597.82543704727 C 389.93738361082 608.00143704727 393.45738361082 613.08943704727 400.49738361082 613.08943704727 C 405.04138361082 613.08943704727 408.01738361082 611.39343704727 409.42538361082 608.00143704727 C 410.57738361082 605.31343704727 411.15338361082 602.04943704727 411.15338361082 598.20943704727 Z M 423.63338361082 595.32943704727 C 423.63338361082 607.16943704727 421.39338361082 615.10543704727 416.91338361082 619.13743704727 C 413.13738361082 622.59343704727 407.66538361082 624.32143704727 400.49738361082 624.32143704727 C 391.34538361082 624.32143704727 385.16938361082 621.63343704727 381.96938361082 616.25743704727 C 378.96138361082 611.32943704727 377.45738361082 604.35343704727 377.45738361082 595.32943704727 C 377.45738361082 586.88143704727 378.96138361082 580.25743704727 381.96938361082 575.45743704727 C 385.29738361082 570.08143704727 391.36138361082 567.39343704727 400.16138361082 567.39343704727 C 408.96138361082 567.39343704727 415.07338361082 569.74543704727 418.49738361082 574.44943704727 C 421.92138361082 579.15343704727 423.63338361082 586.11343704727 423.63338361082 595.32943704727 Z M 495.72938361082 622.97743704727 L 487.37738361082 622.97743704727 L 483.53738361082 616.35343704727 L 470.19338361082 623.55343704727 C 462.76938361082 623.55343704727 457.77738361082 620.86543704727 455.21738361082 615.48943704727 C 453.93738361082 612.86543704727 453.05738361082 610.03343704727 452.57738361082 606.99343704727 C 452.09738361082 603.95343704727 451.85738361082 600.78543704727 451.85738361082 597.48943704727 C 451.85738361082 594.19343704727 451.88938361082 591.76143704727 451.95338361082 590.19343704727 C 452.01738361082 588.62543704727 452.17738361082 586.80143704727 452.43338361082 584.72143704727 C 452.68938361082 582.64143704727 453.05738361082 580.89743704727 453.53738361082 579.48943704727 C 454.01738361082 578.08143704727 454.70538361082 576.62543704727 455.60138361082 575.12143704727 C 456.49738361082 573.61743704727 457.58538361082 572.41743704727 458.86538361082 571.52143704727 C 461.74538361082 569.53743704727 465.48938361082 568.54543704727 470.09738361082 568.54543704727 L 483.24938361082 568.54543704727 L 483.24938361082 550.78543704727 L 495.72938361082 550.78543704727 L 495.72938361082 622.97743704727 Z M 483.24938361082 605.50543704727 L 483.24938361082 579.77743704727 L 473.74538361082 579.77743704727 C 470.22538361082 579.77743704727 467.77738361082 581.12143704727 466.40138361082 583.80943704727 C 465.02538361082 586.49743704727 464.33738361082 590.51343704727 464.33738361082 595.85743704727 C 464.33738361082 601.20143704727 464.99338361082 604.96143704727 466.30538361082 607.13743704727 C 467.61738361082 609.31343704727 470.09738361082 610.40143704727 473.74538361082 610.40143704727 L 483.24938361082 605.50543704727 Z M 550.83338361082 598.49743704727 L 518.86538361082 598.49743704727 C 518.86538361082 603.48943704727 519.64938361082 607.13743704727 521.21738361082 609.44143704727 C 522.78538361082 611.74543704727 525.93738361082 612.89743704727 530.67338361082 612.89743704727 C 533.74538361082 612.89743704727 536.01738361082 611.92143704727 537.48938361082 609.96943704727 C 538.96138361082 608.01743704727 539.69738361082 606.14543704727 539.69738361082 604.35343704727 L 550.92938361082 604.35343704727 C 550.92938361082 611.20143704727 549.08938361082 616.22543704727 545.40938361082 619.42543704727 C 541.72938361082 622.62543704727 536.86538361082 624.22543704727 530.81738361082 624.22543704727 C 524.76938361082 624.22543704727 520.08138361082 623.36143704727 516.75338361082 621.63343704727 C 509.90538361082 618.11343704727 506.48138361082 608.76943704727 506.48138361082 593.60143704727 C 506.48138361082 584.57743704727 508.43338361082 577.96943704727 512.33738361082 573.77743704727 C 516.24138361082 569.58543704727 522.19338361082 567.48943704727 530.19338361082 567.48943704727 C 544.08138361082 567.48943704727 551.02538361082 575.20143704727 551.02538361082 590.62543704727 C 551.02538361082 592.28943704727 550.96138361082 594.91343704727 550.83338361082 598.49743704727 Z M 519.15338361082 589.95343704727 L 539.69738361082 589.95343704727 C 539.69738361082 585.72943704727 538.89738361082 582.65743704727 537.29738361082 580.73743704727 C 535.69738361082 578.81743704727 533.24938361082 577.85743704727 529.95338361082 577.85743704727 C 526.65738361082 577.85743704727 524.03338361082 578.83343704727 522.08138361082 580.78543704727 C 520.12938361082 582.73743704727 519.15338361082 585.79343704727 519.15338361082 589.95343704727 Z M 574.35338361082 622.97743704727 L 561.87338361082 623.07343704727 L 561.87338361082 550.78543704727 L 574.35338361082 550.78543704727 L 574.35338361082 622.97743704727 Z M 650.00138361082 568.16143704727 L 631.66538361082 622.97743704727 L 621.87338361082 622.97743704727 L 603.44138361082 568.16143704727 L 616.59338361082 568.16143704727 L 626.76938361082 603.87343704727 L 636.84938361082 568.16143704727 L 650.00138361082 568.16143704727 Z M 698.48138361082 598.49743704727 L 666.51338361082 598.49743704727 C 666.51338361082 603.48943704727 667.29738361082 607.13743704727 668.86538361082 609.44143704727 C 670.43338361082 611.74543704727 673.58538361082 612.89743704727 678.32138361082 612.89743704727 C 681.39338361082 612.89743704727 683.66538361082 611.92143704727 685.13738361082 609.96943704727 C 686.60938361082 608.01743704727 687.34538361082 606.14543704727 687.34538361082 604.35343704727 L 698.57738361082 604.35343704727 C 698.57738361082 611.20143704727 696.73738361082 616.22543704727 693.05738361082 619.42543704727 C 689.37738361082 622.62543704727 684.51338361082 624.22543704727 678.46538361082 624.22543704727 C 672.41738361082 624.22543704727 667.72938361082 623.36143704727 664.40138361082 621.63343704727 C 657.55338361082 618.11343704727 654.12938361082 608.76943704727 654.12938361082 593.60143704727 C 654.12938361082 584.57743704727 656.08138361082 577.96943704727 659.98538361082 573.77743704727 C 663.88938361082 569.58543704727 669.84138361082 567.48943704727 677.84138361082 567.48943704727 C 691.72938361082 567.48943704727 698.67338361082 575.20143704727 698.67338361082 590.62543704727 C 698.67338361082 592.28943704727 698.60938361082 594.91343704727 698.48138361082 598.49743704727 Z M 666.80138361082 589.95343704727 L 687.34538361082 589.95343704727 C 687.34538361082 585.72943704727 686.54538361082 582.65743704727 684.94538361082 580.73743704727 C 683.34538361082 578.81743704727 680.89738361082 577.85743704727 677.60138361082 577.85743704727 C 674.30538361082 577.85743704727 671.68138361082 578.83343704727 669.72938361082 580.78543704727 C 667.77738361082 582.73743704727 666.80138361082 585.79343704727 666.80138361082 589.95343704727 Z M 752.52938361082 622.97743704727 L 740.04938361082 622.97743704727 L 740.04938361082 587.93743704727 C 740.04938361082 584.80143704727 739.40938361082 582.65743704727 738.12938361082 581.50543704727 C 736.84938361082 580.35343704727 735.05738361082 579.77743704727 732.75338361082 579.77743704727 L 721.52138361082 584.48143704727 L 721.52138361082 622.97743704727 L 709.04138361082 622.97743704727 L 709.04138361082 568.16143704727 L 718.35338361082 568.16143704727 L 721.23338361082 574.68943704727 L 736.59338361082 567.58543704727 C 740.88138361082 567.58543704727 744.60938361082 569.16943704727 747.77738361082 572.33743704727 C 750.94538361082 575.50543704727 752.52938361082 580.12943704727 752.52938361082 586.20943704727 L 752.52938361082 622.97743704727 Z M 788.43338361082 622.97743704727 L 780.65738361082 622.97743704727 C 775.92138361082 622.97743704727 772.32138361082 621.56943704727 769.85738361082 618.75343704727 C 767.39338361082 615.93743704727 766.16138361082 612.57743704727 766.16138361082 608.67343704727 L 766.16138361082 579.87343704727 L 760.88138361082 579.87343704727 L 760.88138361082 570.36943704727 L 766.16138361082 570.36943704727 L 766.16138361082 559.61743704727 L 778.64138361082 559.61743704727 L 778.64138361082 570.36943704727 L 787.47338361082 570.36943704727 L 787.47338361082 579.87343704727 L 778.64138361082 579.87343704727 L 778.64138361082 607.90543704727 C 778.64138361082 610.91343704727 780.08138361082 612.41743704727 782.96138361082 612.41743704727 L 788.43338361082 612.41743704727 L 788.43338361082 622.97743704727 Z M 828.46538361082 598.20943704727 L 828.46538361082 593.21743704727 C 828.46538361082 588.48143704727 827.77738361082 584.86543704727 826.40138361082 582.36943704727 C 825.02538361082 579.87343704727 822.16138361082 578.62543704727 817.80938361082 578.62543704727 C 810.76938361082 578.62543704727 807.24938361082 583.36143704727 807.24938361082 592.83343704727 L 807.24938361082 597.82543704727 C 807.24938361082 608.00143704727 810.76938361082 613.08943704727 817.80938361082 613.08943704727 C 822.35338361082 613.08943704727 825.32938361082 611.39343704727 826.73738361082 608.00143704727 C 827.88938361082 605.31343704727 828.46538361082 602.04943704727 828.46538361082 598.20943704727 Z M 840.94538361082 595.32943704727 C 840.94538361082 607.16943704727 838.70538361082 615.10543704727 834.22538361082 619.13743704727 C 830.44938361082 622.59343704727 824.97738361082 624.32143704727 817.80938361082 624.32143704727 C 808.65738361082 624.32143704727 802.48138361082 621.63343704727 799.28138361082 616.25743704727 C 796.27338361082 611.32943704727 794.76938361082 604.35343704727 794.76938361082 595.32943704727 C 794.76938361082 586.88143704727 796.27338361082 580.25743704727 799.28138361082 575.45743704727 C 802.60938361082 570.08143704727 808.67338361082 567.39343704727 817.47338361082 567.39343704727 C 826.27338361082 567.39343704727 832.38538361082 569.74543704727 835.80938361082 574.44943704727 C 839.23338361082 579.15343704727 840.94538361082 586.11343704727 840.94538361082 595.32943704727 Z"/></svg>