<svg width="1000" height="1000" viewBox="0 0 1000 1000" xmlns="http://www.w3.org/2000/svg"><defs/><path fill="#0f3877" fill-rule="evenodd" transform="matrix(1.7911965014183209 0 0 1.7911965014183209 -44.19242856185978 -59.10237865594857)" d="M 425.91492176213 289.37248388115 C 419.11492176213 289.37248388115 412.51492176213 290.37248388115 406.21492176213 292.07248388115 L 379.11492176213 219.67248388115 L 401.71492176213 219.67248388115 C 405.81492176213 219.67248388115 409.11492176213 222.97248388115 409.11492176213 227.07248388115 C 409.11492176213 231.17248388115 405.81492176213 234.47248388115 401.71492176213 234.47248388115 C 398.21492176213 234.47248388115 395.41492176213 237.27248388115 395.41492176213 240.77248388115 C 395.41492176213 244.27248388115 398.21492176213 247.07248388115 401.71492176213 247.07248388115 C 412.81492176213 247.07248388115 421.81492176213 238.07248388115 421.81492176213 226.97248388115 C 421.81492176213 215.87248388115 412.81492176213 206.87248388115 401.71492176213 206.87248388115 L 369.91492176213 206.87248388115 C 367.81492176213 206.87248388115 365.91492176213 207.87248388115 364.71492176213 209.57248388115 C 363.51492176213 211.27248388115 363.21492176213 213.47248388115 364.01492176213 215.37248388115 L 382.71492176213 265.27248388115 C 368.61492176213 264.87248388115 340.51492176213 265.37248388115 308.31492176213 272.27248388115 C 301.61492176213 273.67248388115 295.21492176213 275.37248388115 288.91492176213 277.17248388115 C 284.11492176213 261.87248388115 292.21492176213 236.07248388115 302.61492176213 226.97248388115 L 128.21492176213 124.57248388115 C 138.21492176213 189.67248388115 223.01492176213 203.57248388115 283.61492176213 232.17248388115 L 154.91492176213 186.37248388115 C 163.21492176213 232.27248388115 234.61492176213 232.87248388115 278.11492176213 244.87248388115 L 187.31492176213 230.27248388115 C 195.61492176213 263.17248388115 248.21492176213 254.17248388115 276.41492176213 257.57248388115 L 219.91492176213 259.47248388115 C 229.51492176213 280.27248388115 257.41492176213 270.27248388115 275.91492176213 270.47248388115 L 244.91492176213 276.97248388115 C 252.81492176213 283.27248388115 258.81492176213 285.67248388115 264.01492176213 286.17248388115 C 250.91492176213 291.67248388115 238.81492176213 298.07248388115 227.81492176213 305.57248388115 C 215.21492176213 295.47248388115 199.31492176213 289.47248388115 181.91492176213 289.47248388115 C 141.41492176213 289.47248388115 108.41492176213 322.47248388115 108.41492176213 362.97248388115 C 108.41492176213 403.47248388115 141.41492176213 436.47248388115 181.91492176213 436.47248388115 C 219.81492176213 436.47248388115 251.01492176213 407.67248388115 255.01492176213 370.77248388115 L 286.21492176213 371.37248388115 C 286.21492176213 371.37248388115 286.31492176213 371.37248388115 286.31492176213 371.37248388115 C 288.51492176213 371.37248388115 290.61492176213 370.17248388115 291.71492176213 368.27248388115 C 292.11492176213 367.67248388115 326.81492176213 310.87248388115 393.51492176213 294.87248388115 L 394.11492176213 296.57248388115 C 369.31492176213 308.37248388115 352.21492176213 333.67248388115 352.21492176213 362.87248388115 C 352.21492176213 403.37248388115 385.21492176213 436.37248388115 425.71492176213 436.37248388115 C 466.21492176213 436.37248388115 499.21492176213 403.37248388115 499.21492176213 362.87248388115 C 499.31492176213 322.37248388115 466.41492176213 289.37248388115 425.91492176213 289.37248388115 Z M 195.11492176213 356.77248388115 C 194.91492176213 356.27248388115 194.61492176213 355.87248388115 194.41492176213 355.37248388115 C 203.41492176213 342.67248388115 213.81492176213 332.07248388115 225.21492176213 323.17248388115 C 233.71492176213 332.47248388115 239.31492176213 344.47248388115 240.51492176213 357.67248388115 L 195.11492176213 356.77248388115 Z M 181.91492176213 421.57248388115 C 149.51492176213 421.57248388115 123.21492176213 395.27248388115 123.21492176213 362.87248388115 C 123.21492176213 330.47248388115 149.51492176213 304.17248388115 181.91492176213 304.17248388115 C 194.31492176213 304.17248388115 205.91492176213 308.07248388115 215.41492176213 314.67248388115 C 203.11492176213 324.57248388115 192.51492176213 335.87248388115 183.71492176213 348.47248388115 C 183.11492176213 348.37248388115 182.61492176213 348.37248388115 182.01492176213 348.37248388115 C 174.01492176213 348.37248388115 167.51492176213 354.87248388115 167.51492176213 362.87248388115 C 167.51492176213 370.87248388115 174.01492176213 377.37248388115 182.01492176213 377.37248388115 C 187.61492176213 377.37248388115 192.51492176213 374.17248388115 194.91492176213 369.47248388115 L 240.21492176213 370.37248388115 C 236.41492176213 399.17248388115 211.81492176213 421.57248388115 181.91492176213 421.57248388115 Z M 282.91492176213 358.57248388115 L 255.21492176213 357.97248388115 C 254.11492176213 341.37248388115 247.51492176213 326.27248388115 237.21492176213 314.47248388115 C 295.61492176213 276.57248388115 370.11492176213 277.47248388115 387.51492176213 278.27248388115 L 389.21492176213 282.77248388115 C 326.81492176213 298.37248388115 291.51492176213 345.77248388115 282.91492176213 358.57248388115 Z M 425.91492176213 421.57248388115 C 393.51492176213 421.57248388115 367.21492176213 395.27248388115 367.21492176213 362.87248388115 C 367.21492176213 339.97248388115 380.41492176213 320.17248388115 399.51492176213 310.47248388115 L 415.41492176213 352.97248388115 C 412.91492176213 355.57248388115 411.41492176213 359.07248388115 411.41492176213 362.87248388115 C 411.41492176213 370.87248388115 417.91492176213 377.37248388115 425.91492176213 377.37248388115 C 433.91492176213 377.37248388115 440.41492176213 370.87248388115 440.41492176213 362.87248388115 C 440.41492176213 355.37248388115 434.61492176213 349.17248388115 427.31492176213 348.47248388115 L 411.41492176213 305.97248388115 C 416.01492176213 304.77248388115 420.91492176213 304.17248388115 425.91492176213 304.17248388115 C 458.31492176213 304.17248388115 484.61492176213 330.47248388115 484.61492176213 362.87248388115 C 484.51492176213 395.27248388115 458.21492176213 421.57248388115 425.91492176213 421.57248388115 Z"/><path id="text" fill="#0f3877" transform="matrix(0.9803262525768572 0 0 0.9803262525768572 -2.9174509276687286 745.3196042266309)" d="M 188.05028571429 71.06017260084 L 199.37828571429 70.96417260084 C 199.31428571429 71.47617260084 199.25028571429 72.40417260084 199.18628571429 73.74817260084 C 199.12228571429 75.09217260084 199.07428571429 76.00417260084 199.04228571429 76.48417260084 C 199.01028571429 76.96417260084 198.93028571429 77.71617260084 198.80228571429 78.74017260084 C 198.67428571429 79.76417260084 198.53028571429 80.51617260084 198.37028571429 80.99617260084 C 198.21028571429 81.47617260084 198.00228571429 82.10017260084 197.74628571429 82.86817260084 C 196.59428571429 86.19617260084 193.45828571429 88.82017260084 188.33828571429 90.74017260084 C 185.07428571429 91.89217260084 181.66628571429 92.46817260084 178.11428571429 92.46817260084 C 174.56228571429 92.46817260084 171.34628571429 91.89217260084 168.46628571429 90.74017260084 C 165.58628571429 89.58817260084 163.31428571429 88.11617260084 161.65028571429 86.32417260084 C 157.87428571429 82.35617260084 155.98628571429 74.91617260084 155.98628571429 64.00417260084 C 155.98628571429 53.09217260084 157.87428571429 45.65217260084 161.65028571429 41.68417260084 C 163.31428571429 39.89217260084 165.58628571429 38.42017260084 168.46628571429 37.26817260084 C 171.34628571429 36.11617260084 174.54628571429 35.54017260084 178.06628571429 35.54017260084 C 184.97828571429 35.54017260084 190.22628571429 37.26817260084 193.81028571429 40.72417260084 C 197.39428571429 44.18017260084 199.18628571429 48.98017260084 199.18628571429 55.12417260084 L 187.85828571429 55.12417260084 C 187.85828571429 52.30817260084 187.15428571429 50.21217260084 185.74628571429 48.83617260084 C 184.33828571429 47.46017260084 181.73028571429 46.77217260084 177.92228571429 46.77217260084 C 174.11428571429 46.77217260084 171.58628571429 47.95617260084 170.33828571429 50.32417260084 C 169.09028571429 52.69217260084 168.46628571429 56.24417260084 168.46628571429 60.98017260084 L 168.46628571429 65.97217260084 C 168.46628571429 73.58817260084 169.93828571429 78.26017260084 172.88228571429 79.98817260084 C 174.22628571429 80.82017260084 175.98628571429 81.23617260084 178.16228571429 81.23617260084 C 180.33828571429 81.23617260084 182.11428571429 81.02817260084 183.49028571429 80.61217260084 C 184.86628571429 80.19617260084 185.85828571429 79.47617260084 186.46628571429 78.45217260084 C 187.07428571429 77.42817260084 187.47428571429 76.42017260084 187.66628571429 75.42817260084 C 187.85828571429 74.43617260084 187.98628571429 72.98017260084 188.05028571429 71.06017260084 Z M 247.57028571429 91.12417260084 L 239.21828571429 91.12417260084 L 235.37828571429 84.50017260084 L 222.03428571429 91.70017260084 C 214.61028571429 91.70017260084 209.61828571429 89.01217260084 207.05828571429 83.63617260084 C 205.77828571429 81.01217260084 204.89828571429 78.18017260084 204.41828571429 75.14017260084 C 203.93828571429 72.10017260084 203.69828571429 68.93217260084 203.69828571429 65.63617260084 C 203.69828571429 62.34017260084 203.73028571429 59.90817260084 203.79428571429 58.34017260084 C 203.85828571429 56.77217260084 204.01828571429 54.94817260084 204.27428571429 52.86817260084 C 204.53028571429 50.78817260084 204.89828571429 49.04417260084 205.37828571429 47.63617260084 C 205.85828571429 46.22817260084 206.54628571429 44.77217260084 207.44228571429 43.26817260084 C 208.33828571429 41.76417260084 209.42628571429 40.56417260084 210.70628571429 39.66817260084 C 213.58628571429 37.68417260084 217.33028571429 36.69217260084 221.93828571429 36.69217260084 L 235.09028571429 36.69217260084 L 247.57028571429 35.92417260084 L 247.57028571429 91.12417260084 Z M 235.09028571429 73.65217260084 L 235.09028571429 47.92417260084 L 225.58628571429 47.92417260084 C 222.06628571429 47.92417260084 219.61828571429 49.26817260084 218.24228571429 51.95617260084 C 216.86628571429 54.64417260084 216.17828571429 58.66017260084 216.17828571429 64.00417260084 C 216.17828571429 69.34817260084 216.83428571429 73.10817260084 218.14628571429 75.28417260084 C 219.45828571429 77.46017260084 221.93828571429 78.54817260084 225.58628571429 78.54817260084 L 235.09028571429 73.65217260084 Z M 301.04228571429 36.30817260084 L 282.70628571429 91.12417260084 L 272.91428571429 91.12417260084 L 254.48228571429 36.30817260084 L 267.63428571429 36.30817260084 L 277.81028571429 72.02017260084 L 287.89028571429 36.30817260084 L 301.04228571429 36.30817260084 Z M 346.16228571429 91.12417260084 L 337.81028571429 91.12417260084 L 333.97028571429 84.50017260084 L 320.62628571429 91.70017260084 C 313.20228571429 91.70017260084 308.21028571429 89.01217260084 305.65028571429 83.63617260084 C 304.37028571429 81.01217260084 303.49028571429 78.18017260084 303.01028571429 75.14017260084 C 302.53028571429 72.10017260084 302.29028571429 68.93217260084 302.29028571429 65.63617260084 C 302.29028571429 62.34017260084 302.32228571429 59.90817260084 302.38628571429 58.34017260084 C 302.45028571429 56.77217260084 302.61028571429 54.94817260084 302.86628571429 52.86817260084 C 303.12228571429 50.78817260084 303.49028571429 49.04417260084 303.97028571429 47.63617260084 C 304.45028571429 46.22817260084 305.13828571429 44.77217260084 306.03428571429 43.26817260084 C 306.93028571429 41.76417260084 308.01828571429 40.56417260084 309.29828571429 39.66817260084 C 312.17828571429 37.68417260084 315.92228571429 36.69217260084 320.53028571429 36.69217260084 L 333.68228571429 36.69217260084 L 346.16228571429 35.92417260084 L 346.16228571429 91.12417260084 Z M 333.68228571429 73.65217260084 L 333.68228571429 47.92417260084 L 324.17828571429 47.92417260084 C 320.65828571429 47.92417260084 318.21028571429 49.26817260084 316.83428571429 51.95617260084 C 315.45828571429 54.64417260084 314.77028571429 58.66017260084 314.77028571429 64.00417260084 C 314.77028571429 69.34817260084 315.42628571429 73.10817260084 316.73828571429 75.28417260084 C 318.05028571429 77.46017260084 320.53028571429 78.54817260084 324.17828571429 78.54817260084 L 333.68228571429 73.65217260084 Z M 371.69828571429 91.12417260084 L 359.21828571429 91.22017260084 L 359.21828571429 18.93217260084 L 371.69828571429 18.93217260084 L 371.69828571429 91.12417260084 Z M 397.13828571429 91.12417260084 L 384.65828571429 91.22017260084 L 384.65828571429 18.93217260084 L 397.13828571429 18.93217260084 L 397.13828571429 91.12417260084 Z M 440.24228571429 66.35617260084 L 440.24228571429 61.36417260084 C 440.24228571429 56.62817260084 439.55428571429 53.01217260084 438.17828571429 50.51617260084 C 436.80228571429 48.02017260084 433.93828571429 46.77217260084 429.58628571429 46.77217260084 C 422.54628571429 46.77217260084 419.02628571429 51.50817260084 419.02628571429 60.98017260084 L 419.02628571429 65.97217260084 C 419.02628571429 76.14817260084 422.54628571429 81.23617260084 429.58628571429 81.23617260084 C 434.13028571429 81.23617260084 437.10628571429 79.54017260084 438.51428571429 76.14817260084 C 439.66628571429 73.46017260084 440.24228571429 70.19617260084 440.24228571429 66.35617260084 Z M 452.72228571429 63.47617260084 C 452.72228571429 75.31617260084 450.48228571429 83.25217260084 446.00228571429 87.28417260084 C 442.22628571429 90.74017260084 436.75428571429 92.46817260084 429.58628571429 92.46817260084 C 420.43428571429 92.46817260084 414.25828571429 89.78017260084 411.05828571429 84.40417260084 C 408.05028571429 79.47617260084 406.54628571429 72.50017260084 406.54628571429 63.47617260084 C 406.54628571429 55.02817260084 408.05028571429 48.40417260084 411.05828571429 43.60417260084 C 414.38628571429 38.22817260084 420.45028571429 35.54017260084 429.25028571429 35.54017260084 C 438.05028571429 35.54017260084 444.16228571429 37.89217260084 447.58628571429 42.59617260084 C 451.01028571429 47.30017260084 452.72228571429 54.26017260084 452.72228571429 63.47617260084 Z M 524.81828571429 91.12417260084 L 516.46628571429 91.12417260084 L 512.62628571429 84.50017260084 L 499.28228571429 91.70017260084 C 491.85828571429 91.70017260084 486.86628571429 89.01217260084 484.30628571429 83.63617260084 C 483.02628571429 81.01217260084 482.14628571429 78.18017260084 481.66628571429 75.14017260084 C 481.18628571429 72.10017260084 480.94628571429 68.93217260084 480.94628571429 65.63617260084 C 480.94628571429 62.34017260084 480.97828571429 59.90817260084 481.04228571429 58.34017260084 C 481.10628571429 56.77217260084 481.26628571429 54.94817260084 481.52228571429 52.86817260084 C 481.77828571429 50.78817260084 482.14628571429 49.04417260084 482.62628571429 47.63617260084 C 483.10628571429 46.22817260084 483.79428571429 44.77217260084 484.69028571429 43.26817260084 C 485.58628571429 41.76417260084 486.67428571429 40.56417260084 487.95428571429 39.66817260084 C 490.83428571429 37.68417260084 494.57828571429 36.69217260084 499.18628571429 36.69217260084 L 512.33828571429 36.69217260084 L 512.33828571429 18.93217260084 L 524.81828571429 18.93217260084 L 524.81828571429 91.12417260084 Z M 512.33828571429 73.65217260084 L 512.33828571429 47.92417260084 L 502.83428571429 47.92417260084 C 499.31428571429 47.92417260084 496.86628571429 49.26817260084 495.49028571429 51.95617260084 C 494.11428571429 54.64417260084 493.42628571429 58.66017260084 493.42628571429 64.00417260084 C 493.42628571429 69.34817260084 494.08228571429 73.10817260084 495.39428571429 75.28417260084 C 496.70628571429 77.46017260084 499.18628571429 78.54817260084 502.83428571429 78.54817260084 L 512.33828571429 73.65217260084 Z M 579.92228571429 66.64417260084 L 547.95428571429 66.64417260084 C 547.95428571429 71.63617260084 548.73828571429 75.28417260084 550.30628571429 77.58817260084 C 551.87428571429 79.89217260084 555.02628571429 81.04417260084 559.76228571429 81.04417260084 C 562.83428571429 81.04417260084 565.10628571429 80.06817260084 566.57828571429 78.11617260084 C 568.05028571429 76.16417260084 568.78628571429 74.29217260084 568.78628571429 72.50017260084 L 580.01828571429 72.50017260084 C 580.01828571429 79.34817260084 578.17828571429 84.37217260084 574.49828571429 87.57217260084 C 570.81828571429 90.77217260084 565.95428571429 92.37217260084 559.90628571429 92.37217260084 C 553.85828571429 92.37217260084 549.17028571429 91.50817260084 545.84228571429 89.78017260084 C 538.99428571429 86.26017260084 535.57028571429 76.91617260084 535.57028571429 61.74817260084 C 535.57028571429 52.72417260084 537.52228571429 46.11617260084 541.42628571429 41.92417260084 C 545.33028571429 37.73217260084 551.28228571429 35.63617260084 559.28228571429 35.63617260084 C 573.17028571429 35.63617260084 580.11428571429 43.34817260084 580.11428571429 58.77217260084 C 580.11428571429 60.43617260084 580.05028571429 63.06017260084 579.92228571429 66.64417260084 Z M 548.24228571429 58.10017260084 L 568.78628571429 58.10017260084 C 568.78628571429 53.87617260084 567.98628571429 50.80417260084 566.38628571429 48.88417260084 C 564.78628571429 46.96417260084 562.33828571429 46.00417260084 559.04228571429 46.00417260084 C 555.74628571429 46.00417260084 553.12228571429 46.98017260084 551.17028571429 48.93217260084 C 549.21828571429 50.88417260084 548.24228571429 53.94017260084 548.24228571429 58.10017260084 Z M 603.44228571429 91.12417260084 L 590.96228571429 91.22017260084 L 590.96228571429 18.93217260084 L 603.44228571429 18.93217260084 L 603.44228571429 91.12417260084 Z M 679.09028571429 36.30817260084 L 660.75428571429 91.12417260084 L 650.96228571429 91.12417260084 L 632.53028571429 36.30817260084 L 645.68228571429 36.30817260084 L 655.85828571429 72.02017260084 L 665.93828571429 36.30817260084 L 679.09028571429 36.30817260084 Z M 727.57028571429 66.64417260084 L 695.60228571429 66.64417260084 C 695.60228571429 71.63617260084 696.38628571429 75.28417260084 697.95428571429 77.58817260084 C 699.52228571429 79.89217260084 702.67428571429 81.04417260084 707.41028571429 81.04417260084 C 710.48228571429 81.04417260084 712.75428571429 80.06817260084 714.22628571429 78.11617260084 C 715.69828571429 76.16417260084 716.43428571429 74.29217260084 716.43428571429 72.50017260084 L 727.66628571429 72.50017260084 C 727.66628571429 79.34817260084 725.82628571429 84.37217260084 722.14628571429 87.57217260084 C 718.46628571429 90.77217260084 713.60228571429 92.37217260084 707.55428571429 92.37217260084 C 701.50628571429 92.37217260084 696.81828571429 91.50817260084 693.49028571429 89.78017260084 C 686.64228571429 86.26017260084 683.21828571429 76.91617260084 683.21828571429 61.74817260084 C 683.21828571429 52.72417260084 685.17028571429 46.11617260084 689.07428571429 41.92417260084 C 692.97828571429 37.73217260084 698.93028571429 35.63617260084 706.93028571429 35.63617260084 C 720.81828571429 35.63617260084 727.76228571429 43.34817260084 727.76228571429 58.77217260084 C 727.76228571429 60.43617260084 727.69828571429 63.06017260084 727.57028571429 66.64417260084 Z M 695.89028571429 58.10017260084 L 716.43428571429 58.10017260084 C 716.43428571429 53.87617260084 715.63428571429 50.80417260084 714.03428571429 48.88417260084 C 712.43428571429 46.96417260084 709.98628571429 46.00417260084 706.69028571429 46.00417260084 C 703.39428571429 46.00417260084 700.77028571429 46.98017260084 698.81828571429 48.93217260084 C 696.86628571429 50.88417260084 695.89028571429 53.94017260084 695.89028571429 58.10017260084 Z M 781.61828571429 91.12417260084 L 769.13828571429 91.12417260084 L 769.13828571429 56.08417260084 C 769.13828571429 52.94817260084 768.49828571429 50.80417260084 767.21828571429 49.65217260084 C 765.93828571429 48.50017260084 764.14628571429 47.92417260084 761.84228571429 47.92417260084 L 750.61028571429 52.62817260084 L 750.61028571429 91.12417260084 L 738.13028571429 91.12417260084 L 738.13028571429 36.30817260084 L 747.44228571429 36.30817260084 L 750.32228571429 42.83617260084 L 765.68228571429 35.73217260084 C 769.97028571429 35.73217260084 773.69828571429 37.31617260084 776.86628571429 40.48417260084 C 780.03428571429 43.65217260084 781.61828571429 48.27617260084 781.61828571429 54.35617260084 L 781.61828571429 91.12417260084 Z M 817.52228571429 91.12417260084 L 809.74628571429 91.12417260084 C 805.01028571429 91.12417260084 801.41028571429 89.71617260084 798.94628571429 86.90017260084 C 796.48228571429 84.08417260084 795.25028571429 80.72417260084 795.25028571429 76.82017260084 L 795.25028571429 48.02017260084 L 789.97028571429 48.02017260084 L 789.97028571429 38.51617260084 L 795.25028571429 38.51617260084 L 795.25028571429 27.76417260084 L 807.73028571429 27.76417260084 L 807.73028571429 38.51617260084 L 816.56228571429 38.51617260084 L 816.56228571429 48.02017260084 L 807.73028571429 48.02017260084 L 807.73028571429 76.05217260084 C 807.73028571429 79.06017260084 809.17028571429 80.56417260084 812.05028571429 80.56417260084 L 817.52228571429 80.56417260084 L 817.52228571429 91.12417260084 Z M 857.55428571429 66.35617260084 L 857.55428571429 61.36417260084 C 857.55428571429 56.62817260084 856.86628571429 53.01217260084 855.49028571429 50.51617260084 C 854.11428571429 48.02017260084 851.25028571429 46.77217260084 846.89828571429 46.77217260084 C 839.85828571429 46.77217260084 836.33828571429 51.50817260084 836.33828571429 60.98017260084 L 836.33828571429 65.97217260084 C 836.33828571429 76.14817260084 839.85828571429 81.23617260084 846.89828571429 81.23617260084 C 851.44228571429 81.23617260084 854.41828571429 79.54017260084 855.82628571429 76.14817260084 C 856.97828571429 73.46017260084 857.55428571429 70.19617260084 857.55428571429 66.35617260084 Z M 870.03428571429 63.47617260084 C 870.03428571429 75.31617260084 867.79428571429 83.25217260084 863.31428571429 87.28417260084 C 859.53828571429 90.74017260084 854.06628571429 92.46817260084 846.89828571429 92.46817260084 C 837.74628571429 92.46817260084 831.57028571429 89.78017260084 828.37028571429 84.40417260084 C 825.36228571429 79.47617260084 823.85828571429 72.50017260084 823.85828571429 63.47617260084 C 823.85828571429 55.02817260084 825.36228571429 48.40417260084 828.37028571429 43.60417260084 C 831.69828571429 38.22817260084 837.76228571429 35.54017260084 846.56228571429 35.54017260084 C 855.36228571429 35.54017260084 861.47428571429 37.89217260084 864.89828571429 42.59617260084 C 868.32228571429 47.30017260084 870.03428571429 54.26017260084 870.03428571429 63.47617260084 Z"/></svg>